<svg fill="none" height="56" viewBox="0 0 151 56" width="151" xmlns="http://www.w3.org/2000/svg">
    <path
        d="M25.7026 0.00402348C25.6221 0.00402348 25.5416 0.00804647 25.4571 0.0201166C11.2667 1.66568 0.564453 13.6956 0.564453 27.9987C0.564453 42.3019 11.2707 54.3358 25.4652 55.9814C26.632 56.1182 27.6539 55.2813 27.7867 54.1427C27.8511 53.5875 27.6982 53.0403 27.3481 52.6018C27.0021 52.1632 26.5032 51.8856 25.948 51.8212C13.8658 50.4211 4.7528 40.1816 4.7528 27.9987C4.7528 15.8159 13.8617 5.58044 25.94 4.17628C27.0866 4.0435 27.9114 3.00145 27.7786 1.85478C27.6539 0.800654 26.7647 0 25.7026 0"
        fill="#009A4F" />
    <path
        d="M31.7739 0.00390625C30.7117 0.00390625 29.8226 0.800536 29.6979 1.85869C29.5651 3.00535 30.3899 4.04741 31.5365 4.18018C43.6148 5.58434 52.7277 15.8239 52.7277 28.0027C52.7277 40.1814 43.6148 50.425 31.5325 51.8251C30.9773 51.8895 30.4784 52.1671 30.1324 52.6057C29.7864 53.0442 29.6295 53.5914 29.6938 54.1466C29.8226 55.2812 30.8526 56.1221 32.0153 55.9853C46.2098 54.3438 56.9161 42.3138 56.9161 28.0027C56.9161 13.6915 46.2139 1.66959 32.0234 0.0199994C31.9429 0.00792924 31.8624 0.00390625 31.7779 0.00390625"
        fill="#009A4F" />
    <path
        d="M10.6386 29.1533C10.5138 29.1533 10.3891 29.1654 10.2684 29.1855C9.71721 29.2821 9.23843 29.5919 8.91656 30.0505C8.59469 30.5092 8.47398 31.0644 8.57457 31.6156C10.3167 41.3925 18.794 48.4857 28.7358 48.4857C38.6775 48.4857 47.1548 41.3925 48.8969 31.6156C49.0981 30.481 48.3417 29.3907 47.2031 29.1895C47.0824 29.1694 46.9577 29.1573 46.833 29.1573C45.8191 29.1573 44.954 29.8856 44.773 30.8834C43.3889 38.6566 36.6417 44.3014 28.7358 44.3014C20.8298 44.3014 14.0826 38.6566 12.6985 30.8834C12.5175 29.8816 11.6565 29.1573 10.6386 29.1573"
        fill="#009A4F" />
    <path
        d="M28.7363 7.51159C23.8157 7.51159 19.0561 9.28591 15.3385 12.5006C11.6571 15.6831 9.22694 20.0726 8.49066 24.8564C8.31363 25.9991 9.10221 27.0693 10.2408 27.2423C10.3454 27.2584 10.4541 27.2664 10.5627 27.2664C11.5846 27.2664 12.4738 26.502 12.6267 25.4921C13.2141 21.686 15.1494 18.1977 18.0744 15.663C21.0316 13.1041 24.8176 11.6959 28.7363 11.6959C32.6551 11.6959 36.4371 13.1041 39.3943 15.663C42.3233 18.1977 44.2586 21.686 44.846 25.4881C44.9989 26.502 45.888 27.2624 46.91 27.2624C47.0186 27.2624 47.1232 27.2544 47.2318 27.2383C47.7831 27.1538 48.2699 26.8601 48.5998 26.4094C48.9297 25.9588 49.0665 25.4036 48.982 24.8524C48.2457 20.0686 45.8156 15.6791 42.1342 12.4966C38.4206 9.27786 33.661 7.50757 28.7363 7.50757"
        fill="#009A4F" />
    <path
        d="M28.8249 15.3291C21.8403 15.3291 16.1553 21.0141 16.1553 27.9987C16.1553 34.9833 21.8403 40.6724 28.8249 40.6724C31.9591 40.6724 34.9646 39.5257 37.2861 37.4376C37.7005 37.0152 37.9339 36.4398 37.9339 35.8363C37.9339 34.5609 36.8958 33.5229 35.6204 33.5229C35.033 33.5229 34.4697 33.7441 34.0392 34.1465L33.9789 34.1988C32.5305 35.3978 30.7038 36.0616 28.8249 36.0616C24.3831 36.0616 20.7701 32.4446 20.7701 28.0028C20.7701 23.561 24.3831 19.9439 28.8249 19.9439C32.2126 19.9439 35.2583 22.0884 36.409 25.2749L36.5619 25.6933L26.6442 25.7014C25.4493 25.7939 24.5159 26.8038 24.5159 28.0028C24.5159 29.2742 25.5499 30.3122 26.8253 30.3122C26.8414 30.3122 26.8575 30.3122 26.8776 30.3122H26.9098H39.0121C40.2835 30.3122 41.3175 29.2782 41.3175 28.0068C41.3175 24.6151 40.03 21.4326 37.6925 19.0507C35.3428 16.6568 32.1965 15.3371 28.8289 15.3371"
        fill="#009A4F" />
    <path
        d="M77.1138 21.5212C77.1138 23.038 77.2264 24.4703 77.846 26.0998H73.4646C74.0842 24.4703 74.1405 23.038 74.1405 21.5212V16.9707H68.4957V21.5212C68.4957 23.038 68.552 24.4703 69.1958 26.0998H64.7861C65.3776 24.4703 65.5144 23.038 65.5144 21.5212V12.4243C65.5144 10.9075 65.3735 9.47517 64.7861 7.8457H69.1676C68.552 9.47517 68.4957 10.9075 68.4957 12.4243V16.0735H74.1405V12.4243C74.1405 10.9075 74.0842 9.47517 73.4646 7.8457H77.846C77.2546 9.47517 77.1138 10.9075 77.1138 12.4243V21.5212Z"
        fill="#009A4F" />
    <path
        d="M90.1649 18.9943H82.5849C82.8102 21.9152 83.989 23.766 87.0227 23.766C88.286 23.766 89.0987 23.428 90.0282 22.7561C89.7465 24.6109 88.2579 26.4335 85.4777 26.4335C82.0256 26.4335 79.6357 23.5688 79.6357 19.2155C79.6357 15.2565 81.5187 11.72 85.4495 11.72C88.793 11.72 90.1649 14.1903 90.1649 16.9705V18.9902V18.9943ZM87.1635 16.9423C87.1635 14.0213 86.2944 12.758 85.0271 12.758C83.4821 12.758 82.5567 14.5283 82.5567 17.8395V18.2057H86.1214C86.9905 18.2057 87.1595 18.0648 87.1595 16.9423H87.1635Z"
        fill="#009A4F" />
    <path
        d="M99.5241 26.0956C99.2706 25.6168 99.0735 24.8604 99.0171 24.1845C98.0636 25.5604 96.5468 26.3168 94.9736 26.3168C93.0062 26.3168 91.6865 25.1098 91.6865 23.3114C91.6865 20.841 94.2977 19.9679 96.0117 19.2679C97.9791 18.5115 98.989 17.9482 98.989 17.4976V16.7975C98.989 14.8864 98.6792 12.7258 96.7158 12.7258C95.6496 12.7258 95.0018 13.3736 95.0018 14.637C95.0018 15.3129 95.1708 16.2101 95.5932 17.1918L92.278 17.0228V16.1819C92.278 13.965 93.7385 11.7441 97.3032 11.7441C101.375 11.7441 101.934 14.6933 101.934 17.1355V21.4043C101.934 23.4804 101.99 24.4943 102.666 26.0915H99.5201L99.5241 26.0956ZM98.989 23.5125V20.4789C98.989 19.9438 98.9045 19.8311 98.0073 19.8311C95.4524 19.8311 94.6357 20.5594 94.6357 22.1607C94.6357 23.3959 95.3398 24.2931 96.7399 24.2931C97.5808 24.2931 98.3412 23.9833 98.9849 23.5085L98.989 23.5125Z"
        fill="#009A4F" />
    <path
        d="M104.835 21.8592V12.199C104.835 10.4851 104.779 8.82742 104.187 7.53591C105.423 7.19795 106.545 6.75135 107.752 6.15991V21.8551C107.752 23.372 107.837 24.5508 108.428 26.0958H104.159C104.751 24.5508 104.835 23.372 104.835 21.8551V21.8592Z"
        fill="#009A4F" />
    <path
        d="M115.187 23.9633C115.779 23.9633 116.31 23.7098 117.014 23.2069C117.014 24.8082 115.61 26.4095 113.59 26.4095C111.848 26.4095 110.838 25.1462 110.838 22.5913V12.903H109.265L109.405 12.034H110.838C110.81 11.2776 110.781 10.658 110.697 9.59177C111.763 9.19748 112.773 8.69455 113.759 8.07495V12.034H117.014L116.873 12.903H113.755V21.8309C113.755 22.4505 113.755 23.9633 115.187 23.9633Z"
        fill="#009A4F" />
    <path
        d="M129.442 26.0957H126.127C125.845 24.8323 125.761 23.231 125.761 21.6015V16.2384C125.761 14.5807 125.225 13.7962 124.018 13.7962C123.343 13.7962 122.473 14.0778 121.576 15.1722V21.855C121.576 23.3718 121.661 24.5507 122.252 26.0957H117.983C118.575 24.5507 118.659 23.3718 118.659 21.855V12.1949C118.659 10.4809 118.603 8.82327 118.016 7.53176C119.251 7.1938 120.373 6.7472 121.58 6.15576V14.3554C122.647 12.5006 124.135 11.7724 125.596 11.7724C127.479 11.7724 128.686 12.9794 128.686 15.7033V21.5171C128.686 23.2029 128.855 24.4662 129.446 26.0957H129.442Z"
        fill="#009A4F" />
    <path
        d="M142.304 12.0298C141.378 13.096 140.843 14.3312 140.171 16.3831L136.691 26.687C135.259 31.0121 134.503 31.7122 132.113 31.7122H131.046L130.849 27.9785C131.718 28.4854 132.535 28.7349 133.235 28.7349C134.414 28.7349 135.227 27.9785 135.649 26.687L136.015 25.6771H134.611L131.606 16.3831C130.934 14.3633 130.483 13.1523 129.586 12.0298H134.639C134.498 12.3677 134.414 12.9552 134.414 13.6593C134.414 14.472 134.527 15.4014 134.78 16.2423L136.856 23.0659L139.017 16.2423C139.242 15.5422 139.327 14.7255 139.327 13.9691C139.327 13.1282 139.242 12.4241 139.045 12.0298H142.304Z"
        fill="#009A4F" />
    <path
        d="M75.0619 44.052L75.0055 48.8237H64.7861C65.3776 47.1942 65.5144 45.7619 65.5144 44.2451V35.1482C65.5144 33.6314 65.3735 32.1991 64.7861 30.5696H69.1394C68.6325 32.1991 68.5239 33.6314 68.5239 35.1482V44.2451C68.5239 45.4239 68.552 46.5464 68.721 47.7535H69.1435C72.2897 47.7535 73.8347 46.5183 75.0699 44.0479L75.0619 44.052Z"
        fill="#009A4F" />
    <path
        d="M76.7031 31.1329C76.7031 29.9822 77.544 29.085 78.7792 29.085C80.0144 29.085 80.8834 29.9822 80.8834 31.1329C80.8834 32.2836 79.9862 33.1848 78.7792 33.1848C77.5722 33.1848 76.7031 32.2876 76.7031 31.1329ZM77.4072 44.6394V40.4551C77.4072 38.8256 77.3791 37.1398 76.7635 35.8483C77.9705 35.454 79.1493 35.0355 80.3282 34.4723V44.6354C80.3282 46.1522 80.3845 47.1902 80.9719 48.8197H76.7595C77.3509 47.1902 77.4032 46.1522 77.4032 44.6354L77.4072 44.6394Z"
        fill="#009A4F" />
    <path
        d="M94.3854 34.7581C93.4601 35.8243 92.9531 37.0876 92.253 39.1114L88.8291 48.8278H87.2278L83.7758 39.1114C83.1039 37.1721 82.6532 35.8524 81.7842 34.7581H86.8094C86.6686 35.096 86.5841 35.6834 86.5841 36.3875C86.5841 37.2003 86.6967 38.1578 86.9502 38.9705L88.9981 45.5971L91.1023 38.9705C91.3277 38.2423 91.4121 37.4537 91.4121 36.7255C91.4121 35.9128 91.2995 35.1805 91.1305 34.7581H94.3895H94.3854Z"
        fill="#009A4F" />
    <path
        d="M95.251 31.1329C95.251 29.9822 96.0919 29.085 97.327 29.085C98.5622 29.085 99.4313 29.9822 99.4313 31.1329C99.4313 32.2836 98.5341 33.1848 97.327 33.1848C96.12 33.1848 95.251 32.2876 95.251 31.1329ZM95.9551 44.6394V40.4551C95.9551 38.8256 95.9269 37.1398 95.3113 35.8483C96.5183 35.454 97.6972 35.0355 98.8761 34.4723V44.6354C98.8761 46.1522 98.9324 47.1902 99.5198 48.8197H95.3073C95.8987 47.1902 95.951 46.1522 95.951 44.6354L95.9551 44.6394Z"
        fill="#009A4F" />
    <path
        d="M112.721 48.8237H109.405C109.124 47.5603 109.039 45.959 109.039 44.3296V38.9664C109.039 37.3087 108.504 36.5242 107.297 36.5242C106.625 36.5242 105.752 36.8058 104.855 37.9002V44.583C104.855 46.0998 104.911 47.2787 105.527 48.8237H101.286C101.878 47.2787 101.93 46.0998 101.93 44.583V40.3705C101.93 38.6566 101.902 37.1679 101.286 35.8764C102.324 35.4258 103.362 34.951 104.32 34.4441C104.63 35.0637 104.827 36.2425 104.855 37.0834C105.921 35.2287 107.382 34.5004 108.87 34.5004C110.753 34.5004 111.96 35.7074 111.96 38.4313V44.2451C111.96 45.9309 112.129 47.1942 112.717 48.8237H112.721Z"
        fill="#009A4F" />
    <path
        d="M126.609 31.9497L126.13 35.5989C125.736 34.8989 125.092 34.4764 124.445 34.4764C123.881 34.4764 123.378 34.7862 123.04 35.6271C124.135 36.468 124.811 37.7877 124.811 39.2763C124.811 42.2255 122.509 44.5268 119.335 44.5268C118.743 44.5268 118.156 44.4424 117.621 44.2734C116.836 44.8648 116.498 45.3677 116.498 45.8465C116.498 46.4903 117.311 46.4903 118.325 46.4903H121.19C123.242 46.4903 125.289 46.5747 125.289 49.1014C125.289 51.9942 122.622 54.4083 118.916 54.4083C117.005 54.4083 115.239 54.014 113.469 52.8351L115.155 50.0268C116.981 52.0506 118.86 52.6098 120.659 52.6098C122.457 52.6098 123.523 51.8253 123.523 50.755C123.523 49.6325 122.763 49.2101 120.884 49.2101H117.738C115.69 49.2101 114.37 48.8158 114.37 47.3553C114.37 46.1483 115.436 44.9131 116.728 43.9314C115.211 43.1468 114.173 41.6582 114.173 39.7189C114.173 36.7698 116.531 34.4965 119.677 34.4965C120.715 34.4965 121.668 34.75 122.457 35.1966C123.157 32.4164 124.368 31.7727 125.716 31.7727C126.11 31.7727 126.388 31.829 126.613 31.9417L126.609 31.9497ZM121.805 40.2621C121.805 38.1015 121.157 35.5466 119.222 35.5466C118.015 35.5466 117.174 36.5283 117.174 38.8056C117.174 40.7972 117.681 43.521 119.729 43.521C121.105 43.521 121.805 42.314 121.805 40.2621Z"
        fill="#009A4F" />
    <path
        d="M144.585 6.98459H143.567V6.16382H146.537V6.98459H145.519V9.54749H144.581V6.98459H144.585Z"
        fill="#009A4F" />
    <path
        d="M146.831 6.15991H147.825L148.634 7.47154L149.442 6.15991H150.436V9.5476H149.503V7.60431L148.638 8.93203H148.617L147.756 7.61638V9.55163H146.835V6.16393L146.831 6.15991Z"
        fill="#009A4F" />
</svg>
